# xmcd CD database file
#
# Track frame offsets:
#	150
#	50207
#	88987
#	114051
#	159787
#	187637
#	233432
#	297054
#
# Disc length: 4395 seconds
#
# Revision: 0
# Processed by: cddbd v1.5.2PL0 Copyright (c) Steve Scherf et al.
# Submitted via: CDex 1.51
#
DISCID=56112908
DTITLE=Phronesis - Alive
DYEAR=2010
DGENRE=Jazz
TTITLE0=Blue Inspiration
TTITLE1=French
TTITLE2=Eight Hours
TTITLE3=Abraham's New Gift
TTITLE4=Rue Cinq Diamants
TTITLE5=Happy Notes
TTITLE6=Love Song
TTITLE7=Untitled #2
EXTD=YEAR: 2010
EXTT0=
EXTT1=
EXTT2=
EXTT3=
EXTT4=
EXTT5=
EXTT6=
EXTT7=
PLAYORDER=
